<svg width="34" height="15" viewBox="0 0 34 15" fill="none" xmlns="http://www.w3.org/2000/svg">
<rect width="34" height="15" fill="#1E1E1E"/>
<path d="M-1749 -4852C-1749 -4853.1 -1748.1 -4854 -1747 -4854H4968C4969.1 -4854 4970 -4853.1 4970 -4852V3638C4970 3639.1 4969.1 3640 4968 3640H-1747C-1748.1 3640 -1749 3639.1 -1749 3638V-4852Z" fill="#404040"/>
<path d="M-1747 -4853H4968V-4855H-1747V-4853ZM4969 -4852V3638H4971V-4852H4969ZM4968 3639H-1747V3641H4968V3639ZM-1748 3638V-4852H-1750V3638H-1748ZM-1747 3639C-1747.55 3639 -1748 3638.55 -1748 3638H-1750C-1750 3639.66 -1748.66 3641 -1747 3641V3639ZM4969 3638C4969 3638.55 4968.55 3639 4968 3639V3641C4969.66 3641 4971 3639.66 4971 3638H4969ZM4968 -4853C4968.55 -4853 4969 -4852.55 4969 -4852H4971C4971 -4853.66 4969.66 -4855 4968 -4855V-4853ZM-1747 -4855C-1748.66 -4855 -1750 -4853.66 -1750 -4852H-1748C-1748 -4852.55 -1747.55 -4853 -1747 -4853V-4855Z" fill="white" fill-opacity="0.1"/>
<g clip-path="url(#clip0_0_1)">
<rect width="1920" height="6868" transform="translate(-531 -4041)" fill="white"/>
<path d="M33.7071 8.20711C34.0976 7.81659 34.0976 7.18342 33.7071 6.7929L27.3431 0.428935C26.9526 0.0384102 26.3195 0.0384101 25.9289 0.428934C25.5384 0.819459 25.5384 1.45262 25.9289 1.84315L31.5858 7.5L25.9289 13.1569C25.5384 13.5474 25.5384 14.1805 25.9289 14.5711C26.3195 14.9616 26.9526 14.9616 27.3431 14.5711L33.7071 8.20711ZM-8.74228e-08 8.5L33 8.5L33 6.5L8.74228e-08 6.5L-8.74228e-08 8.5Z" fill="#495AB4"/>
</g>
<defs>
<clipPath id="clip0_0_1">
<rect width="1920" height="6868" fill="white" transform="translate(-531 -4041)"/>
</clipPath>
</defs>
</svg>
