<svg width="21" height="21" viewBox="0 0 21 21" fill="none" xmlns="http://www.w3.org/2000/svg">
<g id="Calling">
<g id="Group 3">
<mask id="mask0_92_35" style="mask-type:luminance" maskUnits="userSpaceOnUse" x="12" y="0" width="9" height="10">
<path id="Clip 2" fill-rule="evenodd" clip-rule="evenodd" d="M12.354 0.500488H20.893V9.0333H12.354V0.500488Z" fill="white"/>
</mask>
<g mask="url(#mask0_92_35)">
<path id="Fill 1" fill-rule="evenodd" clip-rule="evenodd" d="M20.1427 9.0333C19.7657 9.0333 19.4417 8.7503 19.3987 8.3673C19.0197 4.9913 16.3977 2.3713 13.0207 1.9963C12.6097 1.9503 12.3127 1.5803 12.3587 1.1683C12.4037 0.757302 12.7707 0.454302 13.1867 0.506302C17.2647 0.959302 20.4317 4.1223 20.8887 8.1993C20.9347 8.6113 20.6387 8.9823 20.2277 9.0283C20.1997 9.0313 20.1707 9.0333 20.1427 9.0333Z" fill="#495AB4"/>
</g>
</g>
<path id="Fill 4" fill-rule="evenodd" clip-rule="evenodd" d="M16.6026 9.04391C16.2506 9.04391 15.9376 8.79591 15.8676 8.43791C15.5796 6.95791 14.4386 5.81691 12.9606 5.52991C12.5536 5.45091 12.2886 5.05791 12.3676 4.65091C12.4466 4.24391 12.8466 3.97791 13.2466 4.05791C15.3276 4.46191 16.9346 6.06791 17.3396 8.14991C17.4186 8.55791 17.1536 8.95091 16.7476 9.02991C16.6986 9.03891 16.6506 9.04391 16.6026 9.04391Z" fill="#495AB4"/>
<g id="Group 8">
<mask id="mask1_92_35" style="mask-type:luminance" maskUnits="userSpaceOnUse" x="0" y="0" width="21" height="22">
<path id="Clip 7" fill-rule="evenodd" clip-rule="evenodd" d="M0.000366211 0.5H20.5006V21.0005H0.000366211V0.5Z" fill="white"/>
</mask>
<g mask="url(#mask1_92_35)">
<path id="Fill 6" fill-rule="evenodd" clip-rule="evenodd" d="M2.35945 3.56154C2.36145 3.56154 2.31145 3.61354 2.24845 3.67554C2.00645 3.91054 1.50545 4.39954 1.50045 5.42254C1.49245 6.85354 2.43345 9.51054 6.96445 14.0405C11.4734 18.5485 14.1265 19.5005 15.5615 19.5005H15.5824C16.6054 19.4945 17.0935 18.9935 17.3285 18.7525C17.3995 18.6795 17.4575 18.6245 17.4985 18.5915C18.4955 17.5885 19.0054 16.8435 19.0005 16.3645C18.9944 15.8765 18.3874 15.3005 17.5485 14.5015C17.2815 14.2485 16.9914 13.9715 16.6854 13.6655C15.8914 12.8745 15.5005 13.0095 14.6355 13.3135C13.4405 13.7325 11.8035 14.3065 9.25245 11.7535C6.70045 9.20254 7.27245 7.56554 7.68945 6.36954C7.99145 5.50554 8.12945 5.11254 7.33645 4.31854C7.02645 4.00854 6.74745 3.71454 6.49045 3.44454C5.69645 2.61054 5.12345 2.00754 4.63845 2.00054H4.63045C4.15145 2.00054 3.40745 2.51254 2.35445 3.56554C2.35745 3.56254 2.35845 3.56154 2.35945 3.56154ZM15.5615 21.0005C13.0695 21.0005 9.82045 19.0165 5.90445 15.1015C1.97245 11.1705 -0.0145495 7.91154 0.000450505 5.41454C0.0094505 3.76454 0.874451 2.91954 1.19945 2.60254C1.21645 2.58154 1.27445 2.52454 1.29445 2.50454C2.72945 1.06954 3.71545 0.47954 4.65745 0.50054C5.77445 0.51554 6.57045 1.35254 7.57745 2.41154C7.82645 2.67254 8.09545 2.95754 8.39645 3.25754C9.85545 4.71754 9.44045 5.90854 9.10545 6.86454C8.74145 7.90754 8.42645 8.80754 10.3125 10.6935C12.1985 12.5795 13.0975 12.2645 14.1395 11.8975C15.0964 11.5635 16.2845 11.1455 17.7465 12.6055C18.0435 12.9025 18.3235 13.1685 18.5835 13.4155C19.6465 14.4275 20.4865 15.2265 20.5005 16.3465C20.5114 17.3005 19.9314 18.2745 18.4995 19.7065L17.8654 19.2765L18.4025 19.7995C18.0855 20.1245 17.2425 20.9905 15.5915 21.0005H15.5615Z" fill="#495AB4"/>
</g>
</g>
</g>
</svg>
