<svg width="22" height="20" viewBox="0 0 22 20" fill="none" xmlns="http://www.w3.org/2000/svg">
<g id="Message">
<path id="Fill 1" fill-rule="evenodd" clip-rule="evenodd" d="M10.7769 11.9647C10.1079 11.9647 9.44086 11.7437 8.88286 11.3017L4.39786 7.68574C4.07486 7.42574 4.02486 6.95274 4.28386 6.63074C4.54486 6.30974 5.01686 6.25874 5.33886 6.51774L9.81986 10.1297C10.3829 10.5757 11.1759 10.5757 11.7429 10.1257L16.1789 6.51974C16.5009 6.25674 16.9729 6.30674 17.2349 6.62874C17.4959 6.94974 17.4469 7.42174 17.1259 7.68374L12.6819 11.2957C12.1199 11.7417 11.4479 11.9647 10.7769 11.9647Z" fill="#495AB4"/>
<g id="Group 5">
<mask id="mask0_92_101" style="mask-type:luminance" maskUnits="userSpaceOnUse" x="0" y="0" width="22" height="20">
<path id="Clip 4" fill-rule="evenodd" clip-rule="evenodd" d="M0 0.5H21.4999V20H0V0.5Z" fill="white"/>
</mask>
<g mask="url(#mask0_92_101)">
<path id="Fill 3" fill-rule="evenodd" clip-rule="evenodd" d="M5.83888 18.5H15.6589C15.6609 18.498 15.6689 18.5 15.6749 18.5C16.8159 18.5 17.8279 18.092 18.6039 17.317C19.5049 16.42 19.9999 15.131 19.9999 13.688V6.82C19.9999 4.027 18.1739 2 15.6589 2H5.84088C3.32588 2 1.49988 4.027 1.49988 6.82V13.688C1.49988 15.131 1.99588 16.42 2.89588 17.317C3.67188 18.092 4.68488 18.5 5.82488 18.5H5.83888ZM5.82188 20C4.27888 20 2.90088 19.44 1.83688 18.38C0.651878 17.198 -0.00012207 15.532 -0.00012207 13.688V6.82C-0.00012207 3.217 2.51088 0.5 5.84088 0.5H15.6589C18.9889 0.5 21.4999 3.217 21.4999 6.82V13.688C21.4999 15.532 20.8479 17.198 19.6629 18.38C18.5999 19.439 17.2209 20 15.6749 20H15.6589H5.84088H5.82188Z" fill="#495AB4"/>
</g>
</g>
</g>
</svg>
